<svg width="1452" height="285" viewBox="0 0 1452 285" fill="none" xmlns="http://www.w3.org/2000/svg">
<path d="M180.95 105.05C180.95 108.9 177.8 112.05 173.95 112.05H76.65C72.8 112.05 69.65 108.9 69.65 105.05V14.4C69.65 9.84998 65.8 5.99999 61.25 5.99999H8.4C3.85 5.99999 8.34465e-07 9.84998 8.34465e-07 14.4V270.6C8.34465e-07 275.15 3.85 279 8.4 279H61.25C65.8 279 69.65 275.15 69.65 270.6V184.5C69.65 180.65 72.8 177.5 76.65 177.5H173.95C177.8 177.5 180.95 180.65 180.95 184.5V270.6C180.95 275.15 184.8 279 189.35 279H242.55C247.1 279 250.95 275.15 250.95 270.6V14.4C250.95 9.84998 247.1 5.99999 242.55 5.99999H189.35C184.8 5.99999 180.95 9.84998 180.95 14.4V105.05ZM391.357 270.6C391.357 275.15 395.207 279 399.757 279H452.957C457.507 279 461.357 275.15 461.357 270.6V14.4C461.357 9.84998 457.507 5.99999 452.957 5.99999H399.757C395.207 5.99999 391.357 9.84998 391.357 14.4V270.6ZM601.904 270.6C601.904 275.15 605.754 279 610.304 279H663.154C667.704 279 671.554 275.15 671.554 270.6V212.85C671.554 209 674.704 205.85 678.554 205.85H700.254C704.454 205.85 709.004 207.95 711.454 211.45L754.154 272C757.304 276.2 762.204 279 767.454 279H834.304C837.804 279 839.904 275.15 837.804 272L787.754 202.35C785.654 199.2 786.354 195 789.854 193.25C822.404 175.4 837.454 141.8 837.454 105.75C837.454 51.5 805.254 5.99999 735.254 5.99999H610.304C605.754 5.99999 601.904 9.84998 601.904 14.4V270.6ZM769.904 106.45C769.904 125.35 759.404 142.5 731.404 142.5H678.554C674.704 142.5 671.554 139.35 671.554 135.5V76.7C671.554 72.85 674.704 69.7 678.554 69.7H731.404C759.404 69.7 769.904 85.45 769.904 106.45ZM1100.26 284.25C1180.06 284.25 1245.16 220.55 1245.16 142.5C1245.16 64.45 1180.06 0.749994 1100.26 0.749994C1021.51 0.749994 955.361 64.45 955.361 142.5C955.361 220.55 1021.51 284.25 1100.26 284.25ZM1100.26 68.3C1142.26 68.3 1174.46 101.2 1174.46 142.5C1174.46 183.8 1142.26 216.7 1100.26 216.7C1059.31 216.7 1026.06 183.8 1026.06 142.5C1026.06 101.2 1059.31 68.3 1100.26 68.3ZM1407.66 284.95C1431.81 284.95 1451.76 265 1451.76 240.85C1451.76 216.7 1431.81 196.75 1407.66 196.75C1383.51 196.75 1363.56 216.7 1363.56 240.85C1363.56 265 1383.51 284.95 1407.66 284.95Z" fill="white"/>
<path d="M180.95 105.05C180.95 108.9 177.8 112.05 173.95 112.05H76.65C72.8 112.05 69.65 108.9 69.65 105.05V14.4C69.65 9.84998 65.8 5.99999 61.25 5.99999H8.4C3.85 5.99999 8.34465e-07 9.84998 8.34465e-07 14.4V270.6C8.34465e-07 275.15 3.85 279 8.4 279H61.25C65.8 279 69.65 275.15 69.65 270.6V184.5C69.65 180.65 72.8 177.5 76.65 177.5H173.95C177.8 177.5 180.95 180.65 180.95 184.5V270.6C180.95 275.15 184.8 279 189.35 279H242.55C247.1 279 250.95 275.15 250.95 270.6V14.4C250.95 9.84998 247.1 5.99999 242.55 5.99999H189.35C184.8 5.99999 180.95 9.84998 180.95 14.4V105.05ZM391.357 270.6C391.357 275.15 395.207 279 399.757 279H452.957C457.507 279 461.357 275.15 461.357 270.6V14.4C461.357 9.84998 457.507 5.99999 452.957 5.99999H399.757C395.207 5.99999 391.357 9.84998 391.357 14.4V270.6ZM601.904 270.6C601.904 275.15 605.754 279 610.304 279H663.154C667.704 279 671.554 275.15 671.554 270.6V212.85C671.554 209 674.704 205.85 678.554 205.85H700.254C704.454 205.85 709.004 207.95 711.454 211.45L754.154 272C757.304 276.2 762.204 279 767.454 279H834.304C837.804 279 839.904 275.15 837.804 272L787.754 202.35C785.654 199.2 786.354 195 789.854 193.25C822.404 175.4 837.454 141.8 837.454 105.75C837.454 51.5 805.254 5.99999 735.254 5.99999H610.304C605.754 5.99999 601.904 9.84998 601.904 14.4V270.6ZM769.904 106.45C769.904 125.35 759.404 142.5 731.404 142.5H678.554C674.704 142.5 671.554 139.35 671.554 135.5V76.7C671.554 72.85 674.704 69.7 678.554 69.7H731.404C759.404 69.7 769.904 85.45 769.904 106.45ZM1100.26 284.25C1180.06 284.25 1245.16 220.55 1245.16 142.5C1245.16 64.45 1180.06 0.749994 1100.26 0.749994C1021.51 0.749994 955.361 64.45 955.361 142.5C955.361 220.55 1021.51 284.25 1100.26 284.25ZM1100.26 68.3C1142.26 68.3 1174.46 101.2 1174.46 142.5C1174.46 183.8 1142.26 216.7 1100.26 216.7C1059.31 216.7 1026.06 183.8 1026.06 142.5C1026.06 101.2 1059.31 68.3 1100.26 68.3ZM1407.66 284.95C1431.81 284.95 1451.76 265 1451.76 240.85C1451.76 216.7 1431.81 196.75 1407.66 196.75C1383.51 196.75 1363.56 216.7 1363.56 240.85C1363.56 265 1383.51 284.95 1407.66 284.95Z" fill="white"/>
</svg>
