<svg width="36" height="85" viewBox="0 0 36 85" fill="none" xmlns="http://www.w3.org/2000/svg">
<path d="M0 33.5256V51.2743C0 61.0363 7.98675 69.023 17.7487 69.023C27.5107 69.023 35.4974 61.0363 35.4974 51.2743V33.5256C35.4974 23.7636 27.5107 15.7769 17.7487 15.7769C7.98675 15.7769 0 23.7636 0 33.5256ZM17.7487 19.7207C25.3414 19.7207 31.5529 25.9329 31.5529 33.5249V51.2736C31.5529 58.8663 25.3407 65.0778 17.7487 65.0778C10.156 65.0778 3.94451 58.8656 3.94451 51.2736V33.5249C3.94451 25.9322 10.156 19.72 17.7487 19.72V19.7207Z" fill="white"/>
<path d="M17.7488 36.4837C18.8334 36.4837 19.7207 35.5964 19.7207 34.5118V28.5952C19.7207 27.5105 18.8334 26.6233 17.7488 26.6233C16.6641 26.6233 15.7769 27.5106 15.7769 28.5952V34.5118C15.7769 35.5965 16.6641 36.4837 17.7488 36.4837Z" fill="white"/>
<path d="M16.3683 84.2078C16.7624 84.602 17.2555 84.7994 17.7487 84.7994C18.2418 84.7994 18.735 84.602 19.1291 84.2078L24.0593 79.2776C24.8482 78.4887 24.8482 77.3057 24.0593 76.5167C23.2704 75.7278 22.0874 75.7278 21.2984 76.5167L17.7487 80.0665L14.1989 76.5167C13.41 75.7278 12.227 75.7278 11.438 76.5167C10.6491 77.3057 10.6491 78.4886 11.438 79.2776L16.3683 84.2078Z" fill="white"/>
<path d="M16.3682 0.591604L11.438 5.5218C10.6491 6.31072 10.6491 7.49371 11.438 8.28271C11.8321 8.67752 12.3253 8.87492 12.8184 8.87492C13.3116 8.87492 13.8047 8.67752 14.1988 8.2834L17.7486 4.73366L21.2983 8.2834C21.6924 8.67752 22.1856 8.87492 22.6787 8.87492C23.1719 8.87492 23.6651 8.67752 24.0592 8.2834C24.8481 7.49448 24.8481 6.3115 24.0592 5.52249L19.129 0.592291C18.3401 -0.197316 17.1571 -0.197316 16.3681 0.591603L16.3682 0.591604Z" fill="white"/>
</svg>
