<svg width="25" height="48" viewBox="0 0 25 48" fill="none" xmlns="http://www.w3.org/2000/svg">
<path d="M0 12.3429V24.6857C0 31.4744 5.55417 37.0286 12.3429 37.0286C19.1316 37.0286 24.6857 31.4744 24.6857 24.6857V12.3429C24.6857 5.55417 19.1316 0 12.3429 0C5.55417 0 0 5.55417 0 12.3429V12.3429ZM12.3429 2.74261C17.623 2.74261 21.9426 7.06274 21.9426 12.3424V24.6852C21.9426 29.9654 17.6225 34.285 12.3429 34.285C7.06274 34.285 2.7431 29.9649 2.7431 24.6852V12.3424C2.7431 7.06225 7.06274 2.74212 12.3429 2.74212V2.74261Z" fill="white"/>
<path d="M12.343 14.4001C13.0973 14.4001 13.7143 13.7831 13.7143 13.0288V8.91428C13.7143 8.15997 13.0973 7.54297 12.343 7.54297C11.5887 7.54297 10.9717 8.16 10.9717 8.91428V13.0288C10.9717 13.7831 11.5887 14.4001 12.343 14.4001Z" fill="white"/>
<path d="M11.3831 47.5887C11.6571 47.8627 12.0001 48 12.343 48C12.686 48 13.029 47.8627 13.303 47.5887L16.7316 44.1601C17.2802 43.6115 17.2802 42.7888 16.7316 42.2401C16.183 41.6915 15.3603 41.6915 14.8116 42.2401L12.343 44.7087L9.87444 42.2401C9.32581 41.6915 8.50314 41.6915 7.95444 42.2401C7.40581 42.7887 7.40581 43.6114 7.95444 44.1601L11.3831 47.5887Z" fill="white"/>
</svg>
