<svg width="39" height="39" viewBox="0 0 39 39" fill="none" xmlns="http://www.w3.org/2000/svg">
<path d="M19.4735 35.7499C10.5176 35.74 3.25984 28.4704 3.25 19.4999C3.8888 19.6806 4.54926 19.773 5.21305 19.7745C7.40892 19.7907 9.47193 18.7228 10.7291 16.9194C11.853 15.2938 12.0904 13.2127 11.3618 11.375C11.8277 11.4582 12.3 11.5006 12.7732 11.5017C14.8772 11.5174 16.8741 10.5738 18.2 8.93747C19.4975 7.34945 20.0048 5.2572 19.579 3.25C28.539 3.27917 35.7789 10.5781 35.7499 19.5527C35.7207 28.5273 28.4336 35.779 19.4735 35.7499ZM20.7114 30.1729C20.961 30.2803 21.2298 30.3356 21.5015 30.3354C22.3214 30.3346 23.0602 29.8398 23.3743 29.0812C23.6884 28.3227 23.516 27.4493 22.9373 26.8676C22.5559 26.4872 22.0397 26.2734 21.5015 26.2729C20.5387 26.2751 19.7102 26.9551 19.5187 27.9002C19.3273 28.8453 19.8256 29.7949 20.7114 30.1729ZM11.232 27.4217C11.5571 27.5564 11.9055 27.6254 12.2573 27.6249C13.3549 27.6246 14.3435 26.9599 14.7594 25.9425C15.1753 24.925 14.9361 23.7568 14.1538 22.9855C13.6482 22.4867 12.967 22.2071 12.2573 22.2071C10.7647 22.2089 9.55536 23.421 9.55447 24.916C9.55474 26.0028 10.2019 26.9847 11.1995 27.412H11.2077H11.2255L11.232 27.4217ZM26.5324 23.3479C27.6229 23.8066 28.8844 23.5019 29.6463 22.5957C30.4082 21.6896 30.4934 20.3926 29.8566 19.3943C29.6572 19.0833 29.3966 18.8163 29.0909 18.6094C28.251 18.0414 27.1647 17.9913 26.2763 18.4796C25.3879 18.9679 24.8466 19.9127 24.8739 20.9274C24.9012 21.942 25.4925 22.8562 26.4059 23.2959H26.3864L26.4351 23.317L26.4675 23.33H26.4578C26.4809 23.3375 26.5037 23.3462 26.5259 23.356L26.5324 23.3479ZM19.4735 16.791C18.8265 16.79 18.2692 17.2479 18.1439 17.8838C18.0185 18.5196 18.3602 19.1554 18.9592 19.4007C19.5581 19.646 20.2466 19.4323 20.602 18.8906C20.9574 18.349 20.8802 17.6312 20.4178 17.1778C20.2972 17.0589 20.1552 16.964 19.9992 16.8983L19.97 16.8853L19.9262 16.8691C19.7809 16.8171 19.6278 16.7907 19.4735 16.791ZM25.5574 10.0213C24.5193 10.0188 23.648 10.8042 23.5416 11.8385C23.4351 12.8728 24.1282 13.8197 25.145 14.0293C26.1618 14.2388 27.1717 13.6429 27.4816 12.6505C27.7915 11.6582 27.3006 10.592 26.3458 10.1838H26.3296C26.0854 10.0793 25.823 10.0241 25.5574 10.0213ZM7.30589 15.4374C6.55952 15.4374 5.95447 14.8314 5.95447 14.0838C5.95447 13.3362 6.55952 12.7302 7.30589 12.7302C8.05226 12.7302 8.65731 13.3362 8.65731 14.0838C8.65641 14.831 8.05189 15.4365 7.30589 15.4374ZM5.27794 11.375C4.15794 11.375 3.25 10.4655 3.25 9.34372C3.25 8.22189 4.15794 7.31248 5.27794 7.31248C6.39795 7.31248 7.30589 8.22189 7.30589 9.34372C7.3041 10.4648 6.39721 11.3732 5.27794 11.375ZM13.3897 8.6661C12.2697 8.6661 11.3618 7.75668 11.3618 6.63486C11.3618 5.51303 12.2697 4.60362 13.3897 4.60362C14.5097 4.60362 15.4177 5.51303 15.4177 6.63486C15.4177 7.75694 14.51 8.66682 13.3897 8.66772V8.6661ZM8.65893 5.95886C7.91277 5.95886 7.30781 5.35315 7.30751 4.60578C7.30721 3.85841 7.91169 3.25222 8.65785 3.25162C9.40401 3.25103 10.0095 3.85625 10.0104 4.60362C10.0104 5.35146 9.40556 5.95796 8.65893 5.95886Z" fill="white"/>
<path d="M19.4735 35.7499C10.5176 35.74 3.25984 28.4704 3.25 19.4999C3.8888 19.6806 4.54926 19.773 5.21305 19.7745C7.40892 19.7907 9.47193 18.7228 10.7291 16.9194C11.853 15.2938 12.0904 13.2127 11.3618 11.375C11.8277 11.4582 12.3 11.5006 12.7732 11.5017C14.8772 11.5174 16.8741 10.5738 18.2 8.93747C19.4975 7.34945 20.0048 5.2572 19.579 3.25C28.539 3.27917 35.7789 10.5781 35.7499 19.5527C35.7207 28.5273 28.4336 35.779 19.4735 35.7499ZM20.7114 30.1729C20.961 30.2803 21.2298 30.3356 21.5015 30.3354C22.3214 30.3346 23.0602 29.8398 23.3743 29.0812C23.6884 28.3227 23.516 27.4493 22.9373 26.8676C22.5559 26.4872 22.0397 26.2734 21.5015 26.2729C20.5387 26.2751 19.7102 26.9551 19.5187 27.9002C19.3273 28.8453 19.8256 29.7949 20.7114 30.1729ZM11.232 27.4217C11.5571 27.5564 11.9055 27.6254 12.2573 27.6249C13.3549 27.6246 14.3435 26.9599 14.7594 25.9425C15.1753 24.925 14.9361 23.7568 14.1538 22.9855C13.6482 22.4867 12.967 22.2071 12.2573 22.2071C10.7647 22.2089 9.55536 23.421 9.55447 24.916C9.55474 26.0028 10.2019 26.9847 11.1995 27.412H11.2077H11.2255L11.232 27.4217ZM26.5324 23.3479C27.6229 23.8066 28.8844 23.5019 29.6463 22.5957C30.4082 21.6896 30.4934 20.3926 29.8566 19.3943C29.6572 19.0833 29.3966 18.8163 29.0909 18.6094C28.251 18.0414 27.1647 17.9913 26.2763 18.4796C25.3879 18.9679 24.8466 19.9127 24.8739 20.9274C24.9012 21.942 25.4925 22.8562 26.4059 23.2959H26.3864L26.4351 23.317L26.4675 23.33H26.4578C26.4809 23.3375 26.5037 23.3462 26.5259 23.356L26.5324 23.3479ZM19.4735 16.791C18.8265 16.79 18.2692 17.2479 18.1439 17.8838C18.0185 18.5196 18.3602 19.1554 18.9592 19.4007C19.5581 19.646 20.2466 19.4323 20.602 18.8906C20.9574 18.349 20.8802 17.6312 20.4178 17.1778C20.2972 17.0589 20.1552 16.964 19.9992 16.8983L19.97 16.8853L19.9262 16.8691C19.7809 16.8171 19.6278 16.7907 19.4735 16.791ZM25.5574 10.0213C24.5193 10.0188 23.648 10.8042 23.5416 11.8385C23.4351 12.8728 24.1282 13.8197 25.145 14.0293C26.1618 14.2388 27.1717 13.6429 27.4816 12.6505C27.7915 11.6582 27.3006 10.592 26.3458 10.1838H26.3296C26.0854 10.0793 25.823 10.0241 25.5574 10.0213ZM7.30589 15.4374C6.55952 15.4374 5.95447 14.8314 5.95447 14.0838C5.95447 13.3362 6.55952 12.7302 7.30589 12.7302C8.05226 12.7302 8.65731 13.3362 8.65731 14.0838C8.65641 14.831 8.05189 15.4365 7.30589 15.4374ZM5.27794 11.375C4.15794 11.375 3.25 10.4655 3.25 9.34372C3.25 8.22189 4.15794 7.31248 5.27794 7.31248C6.39795 7.31248 7.30589 8.22189 7.30589 9.34372C7.3041 10.4648 6.39721 11.3732 5.27794 11.375ZM13.3897 8.6661C12.2697 8.6661 11.3618 7.75668 11.3618 6.63486C11.3618 5.51303 12.2697 4.60362 13.3897 4.60362C14.5097 4.60362 15.4177 5.51303 15.4177 6.63486C15.4177 7.75694 14.51 8.66682 13.3897 8.66772V8.6661ZM8.65893 5.95886C7.91277 5.95886 7.30781 5.35315 7.30751 4.60578C7.30721 3.85841 7.91169 3.25222 8.65785 3.25162C9.40401 3.25103 10.0095 3.85625 10.0104 4.60362C10.0104 5.35146 9.40556 5.95796 8.65893 5.95886Z" fill="white"/>
</svg>
