<svg width="41" height="37" viewBox="0 0 41 37" fill="none" xmlns="http://www.w3.org/2000/svg">
<path d="M20.5002 36.8751C19.1833 35.7073 17.695 34.4925 16.1208 33.2001H16.1004C10.5573 28.6676 4.27508 23.5389 1.50046 17.3935C0.588891 15.437 0.105805 13.3084 0.0835194 11.1501C0.0774316 8.18863 1.2652 5.34969 3.3784 3.27491C5.4916 1.20014 8.35185 0.0646536 11.3127 0.125098C13.7232 0.128905 16.0817 0.825556 18.1074 2.13206C18.9975 2.70979 19.8028 3.40862 20.5002 4.20843C21.2015 3.41176 22.0071 2.71334 22.8951 2.13206C24.9199 0.825297 27.2779 0.128607 29.6877 0.125098C32.6486 0.0646536 35.5088 1.20014 37.622 3.27491C39.7352 5.34969 40.923 8.18863 40.9169 11.1501C40.8961 13.3118 40.4129 15.4441 39.5 17.4037C36.7253 23.5491 30.4452 28.6758 24.902 33.2001L24.8816 33.2164C23.3055 34.5006 21.8191 35.7154 20.5023 36.8914L20.5002 36.8751ZM11.3127 4.20843C9.41092 4.18463 7.57661 4.91249 6.20854 6.23377C4.89041 7.52852 4.15372 9.30248 4.1667 11.1501C4.19 12.7232 4.54627 14.2735 5.21221 15.6989C6.52196 18.3505 8.28922 20.7501 10.4328 22.7876C12.456 24.8293 14.7835 26.8056 16.7966 28.4675C17.354 28.9269 17.9216 29.3903 18.4892 29.8538L18.8465 30.1458C19.3916 30.5909 19.9551 31.0523 20.5002 31.5055L20.5268 31.481L20.539 31.4708H20.5513L20.5696 31.4565H20.5798H20.59L20.6268 31.4259L20.7105 31.3585L20.7248 31.3463L20.7473 31.3299H20.7595L20.7779 31.3136L22.1335 30.2009L22.4888 29.9089C23.0625 29.4414 23.6301 28.9779 24.1875 28.5186C26.2005 26.8566 28.5301 24.8824 30.5534 22.8305C32.6972 20.794 34.4645 18.395 35.7739 15.7438C36.4519 14.3061 36.8133 12.7395 36.8336 11.1501C36.842 9.30819 36.1057 7.54103 34.7919 6.2501C33.4264 4.92285 31.5918 4.189 29.6877 4.20843C27.3641 4.18869 25.1428 5.16264 23.5831 6.88506L20.5002 10.4376L17.4173 6.88506C15.8576 5.16264 13.6363 4.18869 11.3127 4.20843Z" fill="white"/>
<path d="M20.5002 36.8751C19.1833 35.7073 17.695 34.4925 16.1208 33.2001H16.1004C10.5573 28.6676 4.27508 23.5389 1.50046 17.3935C0.588891 15.437 0.105805 13.3084 0.0835194 11.1501C0.0774316 8.18863 1.2652 5.34969 3.3784 3.27491C5.4916 1.20014 8.35185 0.0646536 11.3127 0.125098C13.7232 0.128905 16.0817 0.825556 18.1074 2.13206C18.9975 2.70979 19.8028 3.40862 20.5002 4.20843C21.2015 3.41176 22.0071 2.71334 22.8951 2.13206C24.9199 0.825297 27.2779 0.128607 29.6877 0.125098C32.6486 0.0646536 35.5088 1.20014 37.622 3.27491C39.7352 5.34969 40.923 8.18863 40.9169 11.1501C40.8961 13.3118 40.4129 15.4441 39.5 17.4037C36.7253 23.5491 30.4452 28.6758 24.902 33.2001L24.8816 33.2164C23.3055 34.5006 21.8191 35.7154 20.5023 36.8914L20.5002 36.8751ZM11.3127 4.20843C9.41092 4.18463 7.57661 4.91249 6.20854 6.23377C4.89041 7.52852 4.15372 9.30248 4.1667 11.1501C4.19 12.7232 4.54627 14.2735 5.21221 15.6989C6.52196 18.3505 8.28922 20.7501 10.4328 22.7876C12.456 24.8293 14.7835 26.8056 16.7966 28.4675C17.354 28.9269 17.9216 29.3903 18.4892 29.8538L18.8465 30.1458C19.3916 30.5909 19.9551 31.0523 20.5002 31.5055L20.5268 31.481L20.539 31.4708H20.5513L20.5696 31.4565H20.5798H20.59L20.6268 31.4259L20.7105 31.3585L20.7248 31.3463L20.7473 31.3299H20.7595L20.7779 31.3136L22.1335 30.2009L22.4888 29.9089C23.0625 29.4414 23.6301 28.9779 24.1875 28.5186C26.2005 26.8566 28.5301 24.8824 30.5534 22.8305C32.6972 20.794 34.4645 18.395 35.7739 15.7438C36.4519 14.3061 36.8133 12.7395 36.8336 11.1501C36.842 9.30819 36.1057 7.54103 34.7919 6.2501C33.4264 4.92285 31.5918 4.189 29.6877 4.20843C27.3641 4.18869 25.1428 5.16264 23.5831 6.88506L20.5002 10.4376L17.4173 6.88506C15.8576 5.16264 13.6363 4.18869 11.3127 4.20843Z" fill="white"/>
</svg>
