<svg width="330" height="65" viewBox="0 0 330 65" fill="none" xmlns="http://www.w3.org/2000/svg">
<path d="M41.4119 3.23513C41.4119 1.94101 42.0589 1.29395 43.3531 1.29395H55.6472C56.9413 1.29395 57.5884 1.94101 57.5884 3.23513V61.4706C57.5884 62.7647 56.9413 63.4118 55.6472 63.4118H43.3531C42.0589 63.4118 41.4119 62.7647 41.4119 61.4706V42.0588C41.4119 41.4117 40.7648 40.7646 40.1178 40.7646H17.4706C16.8236 40.7646 16.1765 41.4117 16.1765 42.0588V61.4706C16.1765 62.7647 15.5295 63.4118 14.2353 63.4118H1.94118C0.647061 63.4118 0 62.7647 0 61.4706V3.23513C0 1.94101 0.647061 1.29395 1.94118 1.29395H14.2353C15.5295 1.29395 16.1765 1.94101 16.1765 3.23513V23.9411C16.1765 24.5881 16.8236 25.2352 17.4706 25.2352H39.4707C40.1178 25.2352 40.7648 24.5881 40.7648 23.9411V3.23513H41.4119Z" fill="white"/>
<path d="M89.2935 3.23513C89.2935 1.94101 89.9405 1.29395 91.2346 1.29395H103.529C104.823 1.29395 105.47 1.94101 105.47 3.23513V61.4706C105.47 62.7647 104.823 63.4118 103.529 63.4118H91.2346C89.9405 63.4118 89.2935 62.7647 89.2935 61.4706V3.23513Z" fill="white"/>
<path d="M136.531 3.23513C136.531 1.94101 137.178 1.29395 138.472 1.29395H166.943C183.119 1.29395 190.237 11.6469 190.237 23.9411C190.237 32.3528 187.001 40.1176 179.237 43.9999C178.59 44.647 178.59 45.2941 178.59 45.9411L190.237 62.1176C190.884 62.7647 190.237 63.4118 189.59 63.4118H174.707C173.413 63.4118 172.119 62.7647 171.472 62.1176L161.766 47.8823C161.119 47.2352 160.472 46.5882 159.178 46.5882H154.001C153.354 46.5882 152.707 47.2352 152.707 47.8823V60.8235C152.707 62.1176 152.06 62.7647 150.766 62.7647H138.472C137.178 62.7647 136.531 62.1176 136.531 60.8235V3.23513ZM166.296 15.5293H154.001C153.354 15.5293 152.707 16.1763 152.707 16.8234V30.4117C152.707 31.0587 153.354 31.7058 154.001 31.7058H166.296C172.766 31.7058 175.354 27.8234 175.354 23.294C175.354 19.4116 172.766 15.5293 166.296 15.5293Z" fill="white"/>
<path d="M217.413 32.353C217.413 14.8824 232.295 0 250.413 0C268.531 0 283.413 14.2353 283.413 32.353C283.413 49.8237 268.531 64.7061 250.413 64.7061C232.295 64.7061 217.413 49.8237 217.413 32.353ZM233.59 32.353C233.59 42.0589 241.354 49.1766 250.413 49.1766C260.119 49.1766 267.237 41.4119 267.237 32.353C267.237 22.6471 260.119 15.5295 250.413 15.5295C240.707 15.5295 233.59 22.6471 233.59 32.353Z" fill="white"/>
<path d="M309.294 54.3535C309.294 49.177 313.824 44.0005 319.647 44.0005C324.824 44.0005 330 48.5299 330 54.3535C330 60.177 325.471 64.7064 319.647 64.7064C313.824 64.7064 309.294 60.177 309.294 54.3535Z" fill="white"/>
</svg>
