<svg width="196" height="39" viewBox="0 0 196 39" fill="none" xmlns="http://www.w3.org/2000/svg">
<path d="M25.119 14.641C25.119 15.158 24.696 15.581 24.179 15.581H11.113C10.596 15.581 10.173 15.158 10.173 14.641V2.468C10.173 1.857 9.656 1.34 9.045 1.34H1.948C1.337 1.34 0.82 1.857 0.82 2.468V36.872C0.82 37.483 1.337 38 1.948 38H9.045C9.656 38 10.173 37.483 10.173 36.872V25.31C10.173 24.793 10.596 24.37 11.113 24.37H24.179C24.696 24.37 25.119 24.793 25.119 25.31V36.872C25.119 37.483 25.636 38 26.247 38H33.391C34.002 38 34.519 37.483 34.519 36.872V2.468C34.519 1.857 34.002 1.34 33.391 1.34H26.247C25.636 1.34 25.119 1.857 25.119 2.468V14.641ZM53.3737 36.872C53.3737 37.483 53.8907 38 54.5017 38H61.6457C62.2567 38 62.7737 37.483 62.7737 36.872V2.468C62.7737 1.857 62.2567 1.34 61.6457 1.34H54.5017C53.8907 1.34 53.3737 1.857 53.3737 2.468V36.872ZM81.6471 36.872C81.6471 37.483 82.1641 38 82.7751 38H89.8721C90.4831 38 91.0001 37.483 91.0001 36.872V29.117C91.0001 28.6 91.4231 28.177 91.9401 28.177H94.8541C95.4181 28.177 96.0291 28.459 96.3581 28.929L102.092 37.06C102.515 37.624 103.173 38 103.878 38H112.855C113.325 38 113.607 37.483 113.325 37.06L106.604 27.707C106.322 27.284 106.416 26.72 106.886 26.485C111.257 24.088 113.278 19.576 113.278 14.735C113.278 7.45 108.954 1.34 99.5541 1.34H82.7751C82.1641 1.34 81.6471 1.857 81.6471 2.468V36.872ZM104.207 14.829C104.207 17.367 102.797 19.67 99.0371 19.67H91.9401C91.4231 19.67 91.0001 19.247 91.0001 18.73V10.834C91.0001 10.317 91.4231 9.894 91.9401 9.894H99.0371C102.797 9.894 104.207 12.009 104.207 14.829ZM148.569 38.705C159.285 38.705 168.027 30.151 168.027 19.67C168.027 9.189 159.285 0.634999 148.569 0.634999C137.994 0.634999 129.111 9.189 129.111 19.67C129.111 30.151 137.994 38.705 148.569 38.705ZM148.569 9.706C154.209 9.706 158.533 14.124 158.533 19.67C158.533 25.216 154.209 29.634 148.569 29.634C143.07 29.634 138.605 25.216 138.605 19.67C138.605 14.124 143.07 9.706 148.569 9.706ZM189.848 38.799C193.091 38.799 195.77 36.12 195.77 32.877C195.77 29.634 193.091 26.955 189.848 26.955C186.605 26.955 183.926 29.634 183.926 32.877C183.926 36.12 186.605 38.799 189.848 38.799Z" fill="white"/>
<path d="M25.119 14.641C25.119 15.158 24.696 15.581 24.179 15.581H11.113C10.596 15.581 10.173 15.158 10.173 14.641V2.468C10.173 1.857 9.656 1.34 9.045 1.34H1.948C1.337 1.34 0.82 1.857 0.82 2.468V36.872C0.82 37.483 1.337 38 1.948 38H9.045C9.656 38 10.173 37.483 10.173 36.872V25.31C10.173 24.793 10.596 24.37 11.113 24.37H24.179C24.696 24.37 25.119 24.793 25.119 25.31V36.872C25.119 37.483 25.636 38 26.247 38H33.391C34.002 38 34.519 37.483 34.519 36.872V2.468C34.519 1.857 34.002 1.34 33.391 1.34H26.247C25.636 1.34 25.119 1.857 25.119 2.468V14.641ZM53.3737 36.872C53.3737 37.483 53.8907 38 54.5017 38H61.6457C62.2567 38 62.7737 37.483 62.7737 36.872V2.468C62.7737 1.857 62.2567 1.34 61.6457 1.34H54.5017C53.8907 1.34 53.3737 1.857 53.3737 2.468V36.872ZM81.6471 36.872C81.6471 37.483 82.1641 38 82.7751 38H89.8721C90.4831 38 91.0001 37.483 91.0001 36.872V29.117C91.0001 28.6 91.4231 28.177 91.9401 28.177H94.8541C95.4181 28.177 96.0291 28.459 96.3581 28.929L102.092 37.06C102.515 37.624 103.173 38 103.878 38H112.855C113.325 38 113.607 37.483 113.325 37.06L106.604 27.707C106.322 27.284 106.416 26.72 106.886 26.485C111.257 24.088 113.278 19.576 113.278 14.735C113.278 7.45 108.954 1.34 99.5541 1.34H82.7751C82.1641 1.34 81.6471 1.857 81.6471 2.468V36.872ZM104.207 14.829C104.207 17.367 102.797 19.67 99.0371 19.67H91.9401C91.4231 19.67 91.0001 19.247 91.0001 18.73V10.834C91.0001 10.317 91.4231 9.894 91.9401 9.894H99.0371C102.797 9.894 104.207 12.009 104.207 14.829ZM148.569 38.705C159.285 38.705 168.027 30.151 168.027 19.67C168.027 9.189 159.285 0.634999 148.569 0.634999C137.994 0.634999 129.111 9.189 129.111 19.67C129.111 30.151 137.994 38.705 148.569 38.705ZM148.569 9.706C154.209 9.706 158.533 14.124 158.533 19.67C158.533 25.216 154.209 29.634 148.569 29.634C143.07 29.634 138.605 25.216 138.605 19.67C138.605 14.124 143.07 9.706 148.569 9.706ZM189.848 38.799C193.091 38.799 195.77 36.12 195.77 32.877C195.77 29.634 193.091 26.955 189.848 26.955C186.605 26.955 183.926 29.634 183.926 32.877C183.926 36.12 186.605 38.799 189.848 38.799Z" fill="white"/>
</svg>
