<svg width="37" height="37" viewBox="0 0 37 37" fill="none" xmlns="http://www.w3.org/2000/svg">
<path d="M18.5002 36.4166C8.60506 36.4166 0.583496 28.395 0.583496 18.4999C0.583496 8.60482 8.60506 0.583252 18.5002 0.583252C28.3953 0.583252 36.4168 8.60482 36.4168 18.4999C36.406 28.3905 28.3908 36.4057 18.5002 36.4166ZM18.5002 4.16659C10.5841 4.16659 4.16683 10.5838 4.16683 18.4999C4.16683 26.416 10.5841 32.8333 18.5002 32.8333C26.4162 32.8333 32.8335 26.416 32.8335 18.4999C32.8246 10.5875 26.4126 4.17547 18.5002 4.16659ZM18.5002 29.2499C15.6694 29.2978 12.9936 27.96 11.3335 25.6666C10.5274 24.5885 9.92061 23.375 9.54183 22.0833H27.4585C27.4585 22.0833 27.4585 22.0833 27.4585 22.0976C27.0739 23.3826 26.4675 24.5904 25.6668 25.6666C24.0065 27.9597 21.3309 29.2975 18.5002 29.2499ZM12.2293 18.4999C10.7451 18.4999 9.54183 17.2967 9.54183 15.8124C9.54183 14.3282 10.7451 13.1249 12.2293 13.1249C13.7136 13.1249 14.9168 14.3282 14.9168 15.8124C14.9168 17.2967 13.7136 18.4999 12.2293 18.4999ZM24.7585 18.4748C23.2811 18.4748 22.0835 17.2772 22.0835 15.7999C22.0835 14.3225 23.2811 13.1249 24.7585 13.1249C26.2358 13.1249 27.4334 14.3225 27.4334 15.7999C27.4314 17.2764 26.235 18.4729 24.7585 18.4748Z" fill="white"/>
<path d="M18.5002 36.4166C8.60506 36.4166 0.583496 28.395 0.583496 18.4999C0.583496 8.60482 8.60506 0.583252 18.5002 0.583252C28.3953 0.583252 36.4168 8.60482 36.4168 18.4999C36.406 28.3905 28.3908 36.4057 18.5002 36.4166ZM18.5002 4.16659C10.5841 4.16659 4.16683 10.5838 4.16683 18.4999C4.16683 26.416 10.5841 32.8333 18.5002 32.8333C26.4162 32.8333 32.8335 26.416 32.8335 18.4999C32.8246 10.5875 26.4126 4.17547 18.5002 4.16659ZM18.5002 29.2499C15.6694 29.2978 12.9936 27.96 11.3335 25.6666C10.5274 24.5885 9.92061 23.375 9.54183 22.0833H27.4585C27.4585 22.0833 27.4585 22.0833 27.4585 22.0976C27.0739 23.3826 26.4675 24.5904 25.6668 25.6666C24.0065 27.9597 21.3309 29.2975 18.5002 29.2499ZM12.2293 18.4999C10.7451 18.4999 9.54183 17.2967 9.54183 15.8124C9.54183 14.3282 10.7451 13.1249 12.2293 13.1249C13.7136 13.1249 14.9168 14.3282 14.9168 15.8124C14.9168 17.2967 13.7136 18.4999 12.2293 18.4999ZM24.7585 18.4748C23.2811 18.4748 22.0835 17.2772 22.0835 15.7999C22.0835 14.3225 23.2811 13.1249 24.7585 13.1249C26.2358 13.1249 27.4334 14.3225 27.4334 15.7999C27.4314 17.2764 26.235 18.4729 24.7585 18.4748Z" fill="white"/>
</svg>
