<svg width="48" height="44" viewBox="0 0 48 44" fill="none" xmlns="http://www.w3.org/2000/svg">
<path d="M25.885 28.6518L20.3816 23.2135L20.4466 23.1485C24.2166 18.9452 26.9033 14.1135 28.485 9.00016H34.8333V4.66683H19.6666V0.333496H15.3333V4.66683H0.166626V8.9785H24.3683C22.9166 13.1602 20.62 17.1252 17.5 20.5918C15.485 18.3602 13.8166 15.9118 12.495 13.3335H8.16163C9.74329 16.8652 11.91 20.2018 14.6183 23.2135L3.58996 34.0902L6.66663 37.1668L17.5 26.3335L24.2383 33.0718L25.885 28.6518ZM38.0833 17.6668H33.75L24 43.6668H28.3333L30.76 37.1668H41.0516L43.5 43.6668H47.8333L38.0833 17.6668ZM32.4066 32.8335L35.9166 23.4518L39.4266 32.8335H32.4066Z" fill="white"/>
</svg>
